<?xml version="1.0" encoding="UTF-8" standalone="no"?>
<svg
   xmlns:dc="http://purl.org/dc/elements/1.1/"
   xmlns:cc="http://creativecommons.org/ns#"
   xmlns:rdf="http://www.w3.org/1999/02/22-rdf-syntax-ns#"
   xmlns:svg="http://www.w3.org/2000/svg"
   xmlns="http://www.w3.org/2000/svg"
   xmlns:sodipodi="http://sodipodi.sourceforge.net/DTD/sodipodi-0.dtd"
   xmlns:inkscape="http://www.inkscape.org/namespaces/inkscape"
   inkscape:export-ydpi="96"
   inkscape:export-xdpi="96"
   inkscape:export-filename="/Users/btree-mac/Dropbox/Apps/Overleaf/Beamer Poster/img/drawing.png"
   sodipodi:docname="drawing.svg"
   inkscape:version="1.0 (4035a4f, 2020-05-01)"
   id="svg8"
   version="1.1"
   viewBox="0 0 210 297"
   height="297mm"
   width="210mm">
  <defs
     id="defs2">
    <rect
       id="rect1136"
       height="24.480337"
       width="42.47191"
       y="11.797753"
       x="163.39888" />
    <clipPath
       id="clipPath997"
       clipPathUnits="userSpaceOnUse">
      <rect
         style="fill:#803300;fill-opacity:0;stroke:#000000;stroke-width:1.465;stroke-miterlimit:4;stroke-dasharray:none;stroke-opacity:1"
         id="rect999"
         width="82.928749"
         height="114.36578"
         x="-39.567307"
         y="113.28175" />
    </clipPath>
  </defs>
  <sodipodi:namedview
     inkscape:snap-others="false"
     inkscape:snap-nodes="false"
     inkscape:window-maximized="0"
     inkscape:window-y="23"
     inkscape:window-x="48"
     inkscape:window-height="915"
     inkscape:window-width="1252"
     inkscape:snap-grids="true"
     inkscape:object-paths="true"
     showgrid="false"
     inkscape:document-rotation="0"
     inkscape:current-layer="layer1"
     inkscape:document-units="mm"
     inkscape:cy="694.34244"
     inkscape:cx="401.51823"
     inkscape:zoom="0.48973922"
     inkscape:pageshadow="2"
     inkscape:pageopacity="0.0"
     borderopacity="1.0"
     bordercolor="#666666"
     pagecolor="#ffffff"
     id="base" />
  <metadata
     id="metadata5">
    <rdf:RDF>
      <cc:Work
         rdf:about="">
        <dc:format>image/svg+xml</dc:format>
        <dc:type
           rdf:resource="http://purl.org/dc/dcmitype/StillImage" />
        <dc:title></dc:title>
      </cc:Work>
    </rdf:RDF>
  </metadata>
  <g
     inkscape:label="Layer 2"
     id="layer2"
     inkscape:groupmode="layer" />
  <g
     id="layer1"
     inkscape:groupmode="layer"
     inkscape:label="Layer 1">
    <path
       sodipodi:nodetypes="ssssssssscssssssssssscsssssscsssscsssssssssssss"
       id="path109"
       d="m 64.887913,134.19745 c -3.817671,-0.72587 -6.928775,-2.93199 -8.141169,-5.77301 -0.840191,-1.96883 -0.461616,-4.71068 0.915411,-6.62987 0.274635,-0.38275 0.499325,-0.75118 0.499325,-0.81871 0,-0.33195 -0.598081,-0.0531 -1.114124,0.51954 -0.318401,0.35329 -0.650468,0.59532 -0.737937,0.53785 -0.232711,-0.15289 0.377273,-1.91046 0.850406,-2.45032 0.455691,-0.51996 1.482584,-0.61599 2.308623,-0.2159 0.412934,0.20001 0.610061,0.17829 1.028742,-0.11333 l 0.517923,-0.36075 -0.474003,-0.79617 c -0.260699,-0.43789 -0.764932,-0.94755 -1.120519,-1.13258 -0.764261,-0.39768 -0.759408,-0.87173 0.01294,-1.26526 0.781826,-0.39834 2.007849,-0.007 3.019936,0.96572 0.738145,0.70891 0.803774,0.73349 0.803774,0.30114 0,-0.25893 -0.275343,-0.73812 -0.611879,-1.06488 -0.476422,-0.46257 -0.557644,-0.65174 -0.366896,-0.8545 0.134748,-0.14323 0.455953,-0.26043 0.713801,-0.26043 0.564685,0 0.560256,0.0656 0.06525,-0.96648 -0.297785,-0.62092 -0.34548,-0.91581 -0.181981,-1.12524 0.176788,-0.22644 0.29287,-0.22986 0.574385,-0.017 0.768267,0.58113 2.64173,2.92685 2.769375,3.46749 0.0745,0.31544 0.274504,0.69624 0.444521,0.84623 0.255614,0.22552 0.37245,0.18956 0.67512,-0.2078 0.480828,-0.63122 0.775162,-0.60682 1.022502,0.0848 0.167559,0.46848 0.253935,0.51958 0.504534,0.29849 0.166303,-0.14672 0.302368,-0.40858 0.302368,-0.5819 0,-0.43737 2.920202,-3.53206 3.332913,-3.53206 0.42617,0 0.447995,0.84325 0.03682,1.42118 -0.399653,0.5617 -0.385725,0.74563 0.05647,0.74563 0.202789,0 0.538384,0.13189 0.745772,0.2931 0.356573,0.27717 0.342082,0.3206 -0.266792,0.79913 -0.41161,0.32351 -0.64385,0.69368 -0.64385,1.02624 v 0.52022 l 0.662447,-0.5938 c 1.330125,-1.19227 2.965859,-1.52521 3.831695,-0.77989 0.506244,0.43577 0.397705,0.90181 -0.21003,0.90181 -0.374947,0 -1.634304,1.16523 -1.634304,1.51215 0,0.0983 0.290921,0.37455 0.646492,0.61387 0.488656,0.3289 0.765587,0.38699 1.13434,0.23796 0.867485,-0.35062 1.498678,-0.22233 2.061144,0.41891 0.554277,0.63192 1.177096,2.13786 0.973614,2.35417 -0.06256,0.0665 -0.443388,-0.18669 -0.846238,-0.5627 -0.989669,-0.92372 -1.228889,-0.66219 -0.50468,0.55176 2.625976,4.40177 -0.51119,9.73692 -6.725974,11.43838 -1.793251,0.49096 -5.038293,0.60651 -6.930269,0.24678 z"
       style="fill:#803300;stroke:#000000;stroke-width:1.16365;stroke-miterlimit:4;stroke-dasharray:none;stroke-opacity:1" />
    <rect
       y="88.344177"
       x="64.887917"
       height="45.853283"
       width="48.269123"
       id="rect72"
       style="fill:#000000;fill-opacity:0;stroke-width:0.210158" />
    <rect
       y="107.01857"
       x="68.670074"
       height="31.649942"
       width="26.631168"
       id="rect76"
       style="fill:#000000;fill-opacity:0;stroke-width:0.210158" />
    <rect
       y="107.01857"
       x="68.670074"
       height="23.220562"
       width="26.631161"
       id="rect78"
       style="fill:#000000;fill-opacity:0;stroke-width:0.210158" />
    <rect
       y="110.67661"
       x="68.670074"
       height="20.039661"
       width="32.664734"
       id="rect80"
       style="fill:#000000;fill-opacity:0;stroke-width:0.210158" />
    <rect
       y="107.01857"
       x="68.670067"
       height="23.220562"
       width="26.631157"
       id="rect84"
       style="fill:#000000;fill-opacity:0;stroke-width:0.210158" />
    <rect
       y="107.01857"
       x="68.670067"
       height="23.220562"
       width="26.631166"
       id="rect97"
       style="fill:#000000;fill-opacity:0;stroke-width:0.210158" />
    <rect
       y="110.67661"
       x="68.670067"
       height="20.039658"
       width="32.66473"
       id="rect103"
       style="fill:#000000;fill-opacity:0;stroke-width:0.210158" />
    <rect
       y="101.34629"
       x="68.12616"
       height="32.851162"
       width="33.20866"
       id="rect105"
       style="fill:#000000;fill-opacity:0;stroke-width:0.210158" />
    <rect
       y="107.01857"
       x="68.670067"
       height="27.178888"
       width="29.154711"
       id="rect107"
       style="fill:#000000;fill-opacity:0;stroke-width:0.210158" />
    <path
       sodipodi:nodetypes="csscsssscscccccccccccccssssscsscc"
       id="path1001"
       d="m 128.53627,183.33353 c 2.07821,-0.68549 3.24471,-1.67536 4.00222,-3.39623 0.39613,-0.89989 0.42381,-2.92956 0.35898,-26.32672 l -0.0702,-25.35164 -0.5589,-0.89451 c -0.3074,-0.49198 -1.05861,-1.27203 -1.66934,-1.73344 -0.66952,-0.50582 -1.24134,-1.17993 -1.4401,-1.69767 -0.78944,-2.05642 -4.304,-4.07329 -8.64502,-4.96106 l -2.24022,-0.45815 v -0.6963 c 0,-0.69569 7.7e-4,-0.69636 1.45535,-0.76129 l 1.45537,-0.065 0.0678,-5.25452 0.0677,-5.2545 h -6.71182 -6.7118 v 1.40285 c 2.24144,3.13428 0.005,5.23272 0,7.26438 v 1.95012 h 1.51864 1.51864 v 0.72316 0.72317 l -2.13705,0.45164 c -4.31618,0.9122 -7.79401,2.95196 -8.50708,4.98943 -0.22517,0.64343 -0.509259,0.95621 -1.0391,1.14411 -0.887107,0.31456 -1.903985,1.31261 -2.524277,2.47751 -0.438157,0.82287 -0.4618,2.15663 -0.467077,26.35614 l -0.0054,25.48942 0.706852,1.15836 c 0.790046,1.29467 2.349477,2.43849 3.792172,2.7815 1.38778,0.32995 26.76755,0.27444 27.7838,-0.0608 z"
       style="fill:none;stroke:#000000;stroke-width:1.19145;stroke-miterlimit:4;stroke-dasharray:none;stroke-opacity:1" />
    <path
       style="fill:#803300;stroke:#000000;stroke-width:1.16365;stroke-miterlimit:4;stroke-dasharray:none;stroke-opacity:1"
       d="m 49.607242,162.65516 c -3.817671,-0.72587 -6.928775,-2.93199 -8.14117,-5.77302 -0.84019,-1.96883 -0.461615,-4.71067 0.915411,-6.62986 0.274635,-0.38276 0.499326,-0.75118 0.499326,-0.81872 0,-0.33194 -0.598081,-0.0531 -1.114124,0.51955 -0.318401,0.35328 -0.650468,0.59532 -0.737938,0.53785 -0.23271,-0.15289 0.377274,-1.91046 0.850406,-2.45033 0.455691,-0.51996 1.482585,-0.61599 2.308623,-0.21589 0.412935,0.20001 0.610061,0.17829 1.028743,-0.11333 l 0.517923,-0.36075 -0.474003,-0.79617 c -0.260699,-0.43789 -0.764932,-0.94755 -1.120519,-1.13258 -0.764261,-0.39768 -0.759408,-0.87174 0.01294,-1.26526 0.781826,-0.39834 2.007849,-0.007 3.019936,0.96572 0.738145,0.70891 0.803774,0.7335 0.803774,0.30114 0,-0.25893 -0.275344,-0.73813 -0.611879,-1.06487 -0.476422,-0.46259 -0.557644,-0.65174 -0.366896,-0.85451 0.134748,-0.14324 0.455953,-0.26042 0.713801,-0.26042 0.564686,0 0.560255,0.0656 0.06525,-0.96649 -0.297785,-0.62092 -0.345479,-0.91581 -0.18198,-1.12523 0.176788,-0.22645 0.29287,-0.22988 0.574385,-0.017 0.768267,0.58112 2.64173,2.92685 2.769376,3.46749 0.0745,0.31544 0.274504,0.69624 0.44452,0.84623 0.255613,0.22552 0.372451,0.18956 0.67512,-0.20779 0.480829,-0.63122 0.775162,-0.60684 1.022503,0.0847 0.167558,0.46848 0.253934,0.51959 0.504533,0.2985 0.166303,-0.14673 0.302369,-0.40858 0.302369,-0.58189 0,-0.43738 2.920202,-3.53207 3.332913,-3.53207 0.42617,0 0.447995,0.84324 0.03682,1.42118 -0.399653,0.56171 -0.385724,0.74563 0.05647,0.74563 0.202789,0 0.538385,0.13189 0.745773,0.29309 0.356573,0.27718 0.342082,0.32061 -0.266793,0.79914 -0.411609,0.32351 -0.64385,0.69367 -0.64385,1.02625 v 0.52021 l 0.662447,-0.59379 c 1.330126,-1.19228 2.965859,-1.52522 3.831694,-0.77991 0.506244,0.43577 0.397704,0.90181 -0.210029,0.90181 -0.374948,0 -1.634304,1.16524 -1.634304,1.51216 0,0.0983 0.290921,0.37454 0.646493,0.61387 0.488655,0.32889 0.765586,0.38699 1.134339,0.23796 0.867484,-0.35062 1.498677,-0.22233 2.061144,0.41892 0.554276,0.63191 1.177095,2.13784 0.973612,2.35415 -0.06256,0.0665 -0.443386,-0.18668 -0.846238,-0.56269 -0.989668,-0.92373 -1.228888,-0.66219 -0.504678,0.55175 2.625975,4.40177 -0.511191,9.73693 -6.725974,11.43839 -1.79325,0.49095 -5.038293,0.60651 -6.930269,0.24678 z"
       id="path109-2"
       sodipodi:nodetypes="ssssssssscssssssssssscsssssscsssscsssssssssssss" />
    <path
       sodipodi:nodetypes="ssssssssscssssssssssscsssssscsssscsssssssssssss"
       id="path109-2-1"
       d="m 32.879535,136.64619 c -3.817671,-0.72587 -6.928774,-2.93199 -8.141169,-5.77302 -0.840191,-1.96883 -0.461615,-4.71067 0.915411,-6.62985 0.274635,-0.38277 0.499326,-0.75119 0.499326,-0.81873 0,-0.33194 -0.598082,-0.0531 -1.114125,0.51955 -0.3184,0.35328 -0.650467,0.59532 -0.737937,0.53785 -0.23271,-0.15289 0.377274,-1.91046 0.850406,-2.45033 0.455691,-0.51996 1.482585,-0.61599 2.308623,-0.21589 0.412935,0.20001 0.610061,0.17829 1.028743,-0.11333 l 0.517923,-0.36075 -0.474003,-0.79617 c -0.260699,-0.43789 -0.764932,-0.94755 -1.120519,-1.13258 -0.764261,-0.39769 -0.759408,-0.87174 0.01294,-1.26527 0.781827,-0.39833 2.00785,-0.007 3.019936,0.96573 0.738146,0.70891 0.803775,0.73349 0.803775,0.30114 0,-0.25893 -0.275344,-0.73813 -0.611879,-1.06488 -0.476422,-0.46258 -0.557644,-0.65174 -0.366896,-0.8545 0.134748,-0.14324 0.455952,-0.26043 0.713801,-0.26043 0.564685,0 0.560254,0.0656 0.06525,-0.96648 -0.297785,-0.62092 -0.345479,-0.91581 -0.18198,-1.12524 0.176788,-0.22644 0.29287,-0.22987 0.574385,-0.017 0.768267,0.58112 2.641731,2.92684 2.769376,3.46749 0.0745,0.31544 0.274504,0.69623 0.44452,0.84623 0.255613,0.22552 0.372451,0.18956 0.67512,-0.2078 0.480828,-0.63122 0.775163,-0.60682 1.022503,0.0848 0.167559,0.46849 0.253934,0.51959 0.504533,0.2985 0.166303,-0.14673 0.302369,-0.40858 0.302369,-0.5819 0,-0.43737 2.920202,-3.53206 3.332913,-3.53206 0.42617,0 0.447995,0.84325 0.03682,1.42118 -0.399653,0.5617 -0.385724,0.74563 0.05647,0.74563 0.202788,0 0.538384,0.13189 0.745772,0.29309 0.356573,0.27718 0.342082,0.32061 -0.266793,0.79914 -0.411609,0.32351 -0.64385,0.69367 -0.64385,1.02624 v 0.52021 l 0.662448,-0.59379 c 1.330125,-1.19227 2.965858,-1.52521 3.831693,-0.7799 0.506243,0.43577 0.397703,0.90182 -0.21003,0.90182 -0.374947,0 -1.634303,1.16523 -1.634303,1.51215 0,0.0983 0.290921,0.37454 0.646493,0.61387 0.488654,0.3289 0.765585,0.38699 1.134338,0.23796 0.867484,-0.35062 1.498678,-0.22233 2.061144,0.41892 0.554277,0.63191 1.177095,2.13784 0.973612,2.35415 -0.06256,0.0665 -0.443385,-0.18668 -0.846238,-0.56269 -0.989668,-0.92373 -1.228888,-0.66219 -0.504677,0.55175 2.625974,4.40177 -0.511191,9.73693 -6.725973,11.43839 -1.793251,0.49095 -5.038294,0.60651 -6.930271,0.24678 z"
       style="fill:#803300;stroke:#000000;stroke-width:1.16365;stroke-miterlimit:4;stroke-dasharray:none;stroke-opacity:1" />
    <path
       sodipodi:nodetypes="cssssssscsssssssssssssssssssscssssssscssssssssssssscsscccssscccsssssccssssscccssssssssssssssssssssssscccccssssssscsscsssscccssssscssssccccsssssssssccssssscsscssssssscsscccssssscsssssccssssssccsssssscssssssssssssssssssssss"
       id="path1047"
       d="m 104.79695,169.21419 c -0.23085,-0.24054 -0.3454,-0.55587 -0.41549,-1.14368 -0.0862,-0.723 -0.16701,-0.88908 -0.7401,-1.52148 -0.4708,-0.51952 -0.64332,-0.81805 -0.64332,-1.11325 0,-0.90829 0.88402,-1.34422 2.21291,-1.09123 0.71696,0.13649 0.78027,0.12273 1.98756,-0.43137 1.74469,-0.80073 2.88782,-1.48634 2.88782,-1.73199 0,-0.136 -0.94942,-0.6913 -2.72374,-1.59308 l -2.72374,-1.38431 -1.18776,0.0339 c -1.33003,0.038 -1.78625,-0.0874 -2.09298,-0.57515 -0.29699,-0.47231 -0.13391,-0.98829 0.52261,-1.65352 0.47192,-0.47817 0.56007,-0.65993 0.63335,-1.30583 0.10874,-0.95834 0.43282,-1.42616 1.02207,-1.47536 0.62802,-0.0525 1.22985,0.38175 1.60898,1.16075 0.17521,0.36004 0.42833,0.7556 0.56248,0.87902 0.22075,0.20311 2.57819,1.48531 2.73087,1.48531 0.0351,0 -0.0671,-0.23081 -0.22709,-0.51291 -0.24909,-0.43917 -0.29209,-0.72079 -0.29908,-1.95872 -0.008,-1.3446 -0.0324,-1.47889 -0.3541,-1.91837 -1.25158,-1.70982 -1.84141,-4.60927 -1.34314,-6.60258 0.46987,-1.87969 1.82169,-3.74444 3.31068,-4.56686 3.04929,-1.68423 7.60301,-1.82071 11.25575,-0.33736 1.70636,0.69294 3.28728,2.57904 3.86686,4.61331 0.25915,0.9096 0.29448,1.2817 0.24631,2.59317 -0.0517,1.40801 -0.0936,1.61283 -0.52006,2.54619 -0.2551,0.55826 -0.63563,1.22696 -0.84563,1.48599 -0.37131,0.45801 -0.38182,0.51262 -0.38182,1.98326 0,1.31652 -0.0391,1.58864 -0.30225,2.10222 l -0.30224,0.58994 1.35236,-0.72672 c 1.23827,-0.6654 1.38219,-0.78441 1.70591,-1.41059 0.61883,-1.19703 1.47606,-1.77649 2.15279,-1.45519 0.36269,0.17217 0.55309,0.60235 0.67014,1.51406 0.0635,0.49443 0.2131,0.77732 0.7162,1.3541 0.72193,0.82766 0.78791,1.19179 0.31884,1.75944 -0.30869,0.37357 -0.35319,0.38393 -1.67363,0.38961 l -1.35651,0.006 -2.69092,1.3238 c -3.51676,1.73005 -3.49116,1.62343 -0.70989,2.95706 2.04526,0.9807 2.06444,0.98666 2.71083,0.84221 1.17878,-0.26342 2.3308,0.29022 2.3308,1.12014 0,0.29098 -0.16554,0.56228 -0.63221,1.03617 -0.5634,0.57212 -0.6487,0.73873 -0.78388,1.53103 -0.24668,1.44582 -0.89651,1.81909 -1.86627,1.07201 -0.20251,-0.15601 -0.51891,-0.57219 -0.70311,-0.92484 -0.1842,-0.35265 -0.44084,-0.73646 -0.5703,-0.85293 -0.26852,-0.24155 -3.31045,-1.893 -3.48687,-1.893 -0.0638,0 -0.29582,0.18741 -0.51565,0.41647 -0.9539,0.99396 -2.40523,1.42727 -4.44672,1.32764 -1.77007,-0.0864 -2.54266,-0.34853 -3.40317,-1.15469 l -0.68194,-0.63885 -1.66076,0.89969 c -1.39764,0.75717 -1.73356,1.00299 -2.12019,1.55157 -1.17955,1.6736 -1.79475,2.03221 -2.40156,1.39992 z m 1.56708,-1.49664 c 0.62266,-0.95466 0.67904,-1.00075 2.40966,-1.9703 1.14586,-0.64194 1.75344,-1.05777 1.71937,-1.1767 -0.029,-0.10116 -0.13748,-0.43958 -0.24109,-0.75202 l -0.18841,-0.56809 -1.7935,0.91002 -1.79351,0.91004 -1.23899,-0.0296 c -1.13901,-0.0271 -1.58319,0.0753 -1.58319,0.36493 0,0.0532 0.28948,0.40161 0.64331,0.77418 0.58122,0.61202 0.65248,0.75618 0.73835,1.4936 0.11254,0.96655 0.13667,1.02136 0.44971,1.02136 0.15151,0 0.47699,-0.36225 0.87829,-0.97753 z m 19.52133,0.73817 c 0.0357,-0.13165 0.10574,-0.5731 0.15554,-0.98099 0.0812,-0.66463 0.16051,-0.81012 0.76427,-1.40124 0.64997,-0.63637 0.66466,-0.66693 0.41701,-0.86695 -0.19442,-0.15702 -0.54472,-0.19903 -1.44391,-0.17314 l -1.18721,0.0342 -1.8377,-0.90006 -1.8377,-0.90007 -0.23677,0.74601 c -0.13022,0.41029 -0.21882,0.76167 -0.1969,0.78081 0.022,0.0192 0.81988,0.44619 1.77321,0.94899 1.54244,0.81348 1.77376,0.98212 2.10024,1.5311 0.58255,0.97959 0.96227,1.42072 1.22293,1.42072 0.13311,0 0.27125,-0.10771 0.30699,-0.23937 z m -8.18569,-2.29697 c 0.78375,-0.31904 1.37777,-0.79032 1.84707,-1.46536 0.52467,-0.75471 0.673,-1.42573 0.65783,-2.97584 -0.01,-0.99009 0.0526,-1.51524 0.25099,-2.11609 0.25497,-0.77218 0.25755,-1.07871 0.007,-0.81356 -0.20658,0.21849 -0.79217,2.25245 -0.87977,3.05571 -0.0713,0.65354 -0.15708,0.83879 -0.58938,1.27232 -1.22324,1.22674 -4.49437,1.45515 -6.41291,0.4478 -0.87621,-0.46006 -1.05578,-0.74024 -1.25989,-1.96582 -0.24046,-1.4438 -0.85834,-3.18792 -1.05629,-2.98165 -0.026,0.0271 0.0727,0.41258 0.21933,0.85666 0.19898,0.60265 0.27481,1.22403 0.29903,2.45022 0.0275,1.39455 0.0767,1.73008 0.32524,2.22031 0.6299,1.24235 1.5078,1.9393 2.80251,2.22485 0.8798,0.19405 3.09948,0.0713 3.78938,-0.20955 z m -4.38662,-3.70164 c -0.1643,-0.0657 -0.20764,0.0143 -0.20764,0.38298 0.25695,1.6559 1.21372,-0.0735 0.20764,-0.38298 z m 4.51789,0.46409 c -81.696291,-65.366357 -40.848143,-32.68318 0,0 z m 0.78759,-0.33212 c 0,-0.38929 -0.0421,-0.47168 -0.20764,-0.40551 -0.11419,0.0456 -0.23234,0.083 -0.26253,0.083 -0.0301,0 -0.0549,0.24837 -0.0549,0.55192 0,0.50953 0.0202,0.54067 0.26253,0.40552 0.18731,-0.10445 0.26254,-0.28639 0.26254,-0.63494 z m -5.80054,0.1326 c -0.0224,-0.27629 -0.10752,-0.52517 -0.18915,-0.55306 -0.21446,-0.0733 -0.35295,0.63278 -0.16933,0.86332 0.26326,0.33052 0.4008,0.21149 0.35848,-0.31026 z m 6.45395,-1.12224 c 0.0834,-0.47942 0.25923,-1.23171 0.39067,-1.67176 0.22559,-0.75525 0.22611,-0.7929 0.009,-0.67197 -0.12636,0.0704 -0.30183,0.3305 -0.38995,0.57786 -0.0881,0.24736 -0.21436,0.55663 -0.28053,0.68726 -0.15777,0.31141 -0.15454,2.43627 0.004,2.15576 0.0636,-0.11301 0.18386,-0.59773 0.2673,-1.07715 z m -7.18045,-0.95341 c -0.074,-0.0491 -0.1743,-0.28054 -0.22298,-0.51445 -0.0487,-0.23392 -0.26284,-0.59934 -0.47591,-0.81206 -0.45687,-0.45608 -0.45732,-0.45453 -0.14465,0.49787 0.13353,0.40672 0.31856,1.17033 0.4112,1.69692 0.0926,0.52659 0.2049,1.01898 0.24947,1.09422 0.0446,0.0753 0.13421,-0.31551 0.19919,-0.86829 0.0787,-0.66924 0.0732,-1.03486 -0.0163,-1.09421 z m 1.01392,0.84092 c -78.545936,-64.410189 -39.272968,-32.2051 0,0 z m 4.72553,0.0812 c -81.696291,-64.464269 -40.848143,-32.23213 0,0 z m -5.14305,-0.68569 c -0.12928,-0.0841 -0.18379,0.0129 -0.21506,0.38248 -0.0257,0.30355 0.0251,0.53877 0.13126,0.60784 0.12927,0.0841 0.18378,-0.0129 0.21506,-0.38249 0.0257,-0.30355 -0.0251,-0.53875 -0.13126,-0.60783 z m 5.93064,0.33894 c 0,-0.3893 -0.0421,-0.47168 -0.20764,-0.40552 -0.11419,0.0456 -0.23234,0.083 -0.26253,0.083 -0.0301,0 -0.0549,0.24836 -0.0549,0.55193 0,0.50952 0.0202,0.54067 0.26253,0.40551 0.18731,-0.10446 0.26254,-0.28639 0.26254,-0.63494 z m -8.72743,-1.32135 -0.21531,-0.71086 -2.22772,-1.13897 c -2.19698,-1.12325 -2.2331,-1.14887 -2.61611,-1.85604 -0.86822,-1.603 -1.41114,-1.6844 -1.63702,-0.2454 -0.11162,0.71105 -0.21476,0.92478 -0.68914,1.428 -0.95835,1.01661 -0.71655,1.22555 1.34546,1.16261 l 1.05012,-0.0321 2.55966,1.30775 c 2.84991,1.45604 2.84528,1.45587 2.43006,0.085 z m 17.54469,-1.35961 c 1.01872,0.0282 1.31089,-0.008 1.47878,-0.18288 0.19145,-0.19949 0.18037,-0.25374 -0.13058,-0.6388 -0.18689,-0.23143 -0.48316,-0.53829 -0.65838,-0.6819 -0.24142,-0.19788 -0.31857,-0.39226 -0.31857,-0.80268 0,-0.58872 -0.30518,-1.49023 -0.50448,-1.49023 -0.23577,0 -0.87508,0.76662 -1.24125,1.48841 l -0.36745,0.72433 -2.16532,1.08013 c -2.36036,1.17743 -2.39801,1.2142 -2.6086,2.54732 l -0.0907,0.57429 2.66851,-1.32656 2.66851,-1.32656 z m -9.40868,2.11552 c 0.32271,-0.0971 0.40737,-0.20995 0.47296,-0.63041 0.1494,-0.95775 1.00621,-1.76632 2.33372,-2.20236 0.88392,-0.29033 1.38945,-0.79319 1.59429,-1.58584 0.21685,-2.5652 0.072,-2.75157 0.45653,-3.3431 l 0.42283,-0.68811 c 0.59252,-0.96426 0.83348,-1.74093 0.9186,-2.96084 0.14706,-2.10783 -0.47804,-3.9149 -1.86359,-5.38733 -1.18891,-1.26346 -2.80852,-1.92487 -5.53562,-2.26059 -2.12043,-0.26104 -5.05848,0.22551 -6.75719,1.11902 -2.17261,1.14279 -3.57955,3.78905 -3.33281,6.26858 0.60544,2.27537 0.1319,1.62708 1.97118,4.84777 -0.23285,1.268 -0.24571,1.88501 -0.0542,2.60351 0.18964,0.71165 0.63538,1.10886 1.63224,1.45453 1.43449,0.4974 2.29435,1.38588 2.29435,2.37071 0,0.3106 0.0656,0.35628 0.6235,0.43461 1.55948,0.22038 3.28637,0.33024 4.82325,-0.0401 z m -4.01959,-1.62459 c -0.23766,-0.29843 -0.20718,-1.74077 0.0503,-2.38249 0.20913,-0.52111 0.96557,-1.49459 1.16139,-1.49459 0.0647,0 0.11766,0.74333 0.11766,1.65184 0,1.64335 -0.002,1.65389 -0.38369,2.05165 -0.43567,0.45396 -0.68584,0.49988 -0.94569,0.17359 z m 2.07591,-0.15741 c -0.34397,-0.3741 -0.35273,-0.42563 -0.35273,-2.07723 v -1.69362 l 0.40582,0.40173 c 0.8343,0.82588 1.27046,2.42768 0.90878,3.33749 -0.20598,0.51818 -0.50547,0.52802 -0.96187,0.0316 z m -5.14388,-3.15349 c -0.56564,-0.36407 -0.79663,-0.67638 -1.10538,-1.49449 -0.39123,-1.03669 -0.35765,-1.47272 0.15453,-2.0064 0.3919,-0.40836 0.53648,-0.45971 1.73926,-0.61769 1.60921,-0.21138 1.86837,-0.17503 2.21511,0.31065 0.56486,0.79122 0.15848,2.04342 -1.10756,3.41271 -0.68188,0.73751 -1.19724,0.84494 -1.89596,0.39522 z m 7.71274,0.088 c -0.60946,-0.30635 -1.87147,-2.3625 -1.87147,-3.04911 0,-0.5371 0.35856,-1.14682 0.73183,-1.24444 0.36433,-0.0953 1.56817,0.0107 2.64358,0.23279 0.82524,0.1704 1.35399,0.72136 1.34322,1.39963 -0.0107,0.67379 -0.7741,2.1623 -1.29234,2.51987 -0.47568,0.32821 -1.07463,0.38263 -1.55482,0.14126 z"
       style="fill:#000000;fill-opacity:1;stroke-width:0.770143;stroke-miterlimit:4;stroke-dasharray:none" />
    <rect
       y="131.16393"
       x="96.302124"
       height="8.1627779"
       width="36.56432"
       id="rect1052"
       style="fill:#ff0000;fill-opacity:1;stroke:#000000;stroke-width:1.21705;stroke-miterlimit:4;stroke-dasharray:none;stroke-opacity:1" />
    <rect
       style="fill:#ff0000;fill-opacity:1;stroke:#000000;stroke-width:1.21705;stroke-miterlimit:4;stroke-dasharray:none;stroke-opacity:1"
       id="rect1052-1"
       width="36.56432"
       height="8.1627779"
       x="96.253738"
       y="171.29163" />
    <rect
       y="106.45401"
       x="108.78393"
       height="10.565948"
       width="12.019859"
       id="rect1071"
       style="fill:#000000;fill-opacity:1;stroke:#000000;stroke-width:1.13623;stroke-miterlimit:4;stroke-dasharray:none;stroke-opacity:1" />
    <path
       style="fill:#00ff00;stroke:#000000;stroke-width:1.71376;stroke-miterlimit:4;stroke-dasharray:none;stroke-opacity:1"
       d="m 77.313508,125.10584 c 1.96849,-0.90619 2.964106,-2.3995 2.930949,-4.39604 l -0.0245,-1.48109 11.790101,-1.73762 c 6.484562,-0.95569 11.738792,-1.78423 11.676082,-1.84118 -0.0626,-0.0569 -4.457073,0.26172 -9.765224,0.70814 -5.30816,0.44644 -9.733003,0.73743 -9.832968,0.64662 -0.09994,-0.0907 0.04884,-0.16507 0.330812,-0.16507 0.863471,0 21.22574,-2.8361 21.38215,-2.97814 0.0806,-0.0731 -2.99687,-0.22902 -6.838758,-0.34626 -10.418746,-0.31798 -17.788334,-0.61443 -17.681697,-0.71129 0.07411,-0.0673 19.177525,-0.96829 24.127965,-1.13791 1.41963,-0.0486 -2.6928,-0.61089 -13.870971,-1.89647 -5.10178,-0.58674 -9.229223,-1.10925 -9.172091,-1.16114 0.05724,-0.0519 5.179928,0.18303 11.384023,0.522 6.20408,0.33899 11.324289,0.57627 11.378229,0.52728 0.085,-0.0771 -4.90846,-0.80175 -21.103642,-3.06251 l -3.711326,-0.51809 -0.180178,-1.6198 c -0.350757,-3.15337 -2.381063,-4.734111 -5.853469,-4.557345 -3.250709,0.165485 -4.972884,1.581585 -5.339154,4.390315 -0.166896,1.27983 -0.35563,1.62 -0.977488,1.76176 -1.477712,0.33685 -3.636684,2.05913 -4.417476,3.52402 -2.017655,3.78537 0.04852,8.44748 4.373216,9.86775 0.51834,0.17024 0.825084,0.29116 1.005965,0.47925 0.224647,0.23359 0.255179,0.57075 0.255857,1.23457 0.0011,1.77232 1.098144,3.28815 2.92204,4.04011 1.966057,0.81057 3.302489,0.78701 5.211644,-0.0918 z"
       id="path1001-3"
       sodipodi:nodetypes="sscsssssssssscscscssssssscsss" />
    <text
       style="fill:black;fill-opacity:1;line-height:1.25;stroke:none;font-family:sans-serif;font-style:normal;font-weight:normal;font-size:10.58333333000000032px;white-space:pre;shape-inside:url(#rect1136);"
       id="text1134"
       xml:space="preserve" />
    <path
       sodipodi:nodetypes="sssssssssccssssssssssscsscscsssssscccssscsssssssscccccccccccccccssssscssssssscccccssscccccccsssssscsssssssssssscccss"
       id="path1154"
       d="m 166.79305,185.87154 c -6.67604,-0.34081 -12.01905,-1.64544 -15.98344,-3.90276 -6.57652,-3.74467 -10.18296,-10.82781 -11.01714,-21.63795 -0.16906,-2.19077 -0.18978,-6.82793 -0.0399,-8.93013 0.51911,-7.28157 2.8276,-15.10804 6.37233,-21.60404 3.25537,-5.96574 7.63543,-11.48416 12.74371,-16.0558 0.91088,-0.81518 1.74483,-1.57016 1.85323,-1.67774 0.19065,-0.18922 0.10425,-0.44864 -2.65089,-7.95879 -1.56639,-4.26974 -2.83223,-7.782172 -2.81299,-7.805414 0.0193,-0.02326 0.83456,-0.503909 1.81182,-1.06815 12.38677,-3.208462 18.60595,-2.836666 28.56182,-1.660652 1.08087,0.511172 4.80998,2.572055 4.93745,2.728671 0.0195,0.02391 -1.07996,3.073794 -2.44316,6.777545 -1.36319,3.70375 -2.47853,6.78028 -2.47853,6.83673 0,0.0564 0.67742,3.94896 1.50538,4.12269 1.65973,0.34827 4.29384,1.21958 5.89814,1.951 3.31954,1.51341 6.59457,3.79252 9.47233,6.59186 0.93028,0.90492 6.71669,7.31319 6.71669,7.47567 0,0.13213 -4.01925,1.46714 -4.12463,1.46714 -0.0471,0 -0.19333,-0.15908 -0.32495,-0.35351 -0.44735,-0.6608 -5.46772,-6.12219 -6.60185,-7.19133 -0.99123,-0.93443 -4.38511,-3.4522 -4.65348,-3.4522 -0.0542,0 0.57083,0.89446 1.38904,1.9877 6.56426,8.77073 10.22808,18.17223 11.10644,28.49954 0.17475,2.05451 0.19696,6.60649 0.0434,8.88477 -0.30263,4.48913 -1.20183,8.75431 -2.52965,11.9989 -3.66423,8.95371 -10.68139,13.04869 -23.869,13.92919 -1.80581,0.12056 -10.79869,0.15342 -12.88213,0.0471 z m 13.77055,-4.5998 c 7.0135,-0.7552 11.30806,-2.11981 14.30467,-4.54537 4.30545,-3.48497 8.58492,-11.98509 8.39677,-21.92118 -0.0611,-3.2259 -0.20335,-4.64202 -0.74519,-7.41787 -1.90749,-9.77213 -5.52648,-20.01748 -13.95574,-27.75574 -0.8279,-0.76003 -4.58823,-4.36812 -5.12248,-4.78416 l -2.0297,-1.28561 -8.49864,1.05834 h -7.4403 l -0.97137,0.75644 c -3.488,2.71622 -9.73503,9.78413 -12.70735,13.98452 -4.73457,6.69071 -7.52475,13.6987 -8.5088,21.37113 -0.14068,1.09688 -0.17358,2.12693 -0.17132,5.36272 0.003,4.3729 0.13121,5.98266 0.68626,8.62108 1.48403,7.05432 7.69776,13.96274 15.89545,15.73081 1.56248,0.33699 4.86774,0.78201 6.99848,0.94226 2.11711,0.15923 12.08382,0.0748 13.86926,-0.11737 z m -7.88873,-10.65484 c -2.43308,-0.52782 -4.65698,-2.11791 -6.38379,-4.56441 -0.98375,-1.39374 -1.66771,-2.74266 -2.36878,-4.67171 -0.43149,-1.18729 -1.14869,-3.88913 -1.43914,-5.42158 l -0.0901,-0.47518 -1.70121,-0.0372 -1.7012,-0.0372 0.0267,-2.81391 0.0266,-2.81391 1.40667,-0.0377 1.40667,-0.0377 v -1.89698 -1.89698 h -1.43135 -1.43134 v -2.85101 -2.85107 h 1.7193 1.71931 l 0.10311,-0.66125 c 0.32745,-2.09996 1.40695,-5.62984 2.2682,-7.41682 1.3437,-2.78803 3.34504,-5.05621 5.4434,-6.16916 2.34071,-1.24151 5.31443,-1.28655 7.5516,-0.11442 1.81574,0.95133 3.90286,2.96232 5.18184,4.99281 l 0.49683,0.78876 -2.00027,2.36188 c -1.10015,1.29902 -2.05392,2.40678 -2.1195,2.46168 -0.0752,0.0629 -0.40028,-0.30475 -0.8798,-0.99505 -0.79059,-1.13811 -1.74248,-2.09153 -2.5053,-2.50935 -0.55854,-0.30593 -2.19945,-0.4268 -3.01076,-0.2218 -1.81516,0.45867 -3.33723,2.44636 -4.34526,5.67452 -0.18229,0.58381 -0.36122,1.22949 -0.3976,1.43484 l -0.0662,0.37336 h 3.76182 3.76182 v 2.85107 2.85107 h -4.08605 c -3.63488,0 -4.09267,0.0237 -4.14597,0.21475 -0.033,0.11812 -0.0599,0.97344 -0.0599,1.90072 v 1.68596 h 4.14597 4.14597 v 2.85106 2.85107 h -3.76182 -3.76181 l 0.0677,0.37117 c 0.29928,1.63993 1.38308,4.29017 2.19049,5.35641 0.86795,1.14617 1.95189,1.78824 3.29114,1.9495 1.89833,0.22858 3.24987,-0.46531 4.67372,-2.3995 0.75856,-1.03044 0.90296,-1.17253 1.04702,-1.03025 0.0919,0.0908 1.04008,1.19522 2.10704,2.45432 l 1.93994,2.28929 -0.33814,0.56755 c -0.41693,0.69978 -1.73563,2.25939 -2.55234,3.01861 -1.22677,1.14044 -2.74557,2.04499 -4.07006,2.42402 -0.93625,0.26793 -3.02043,0.37642 -3.83531,0.19964 z m 9.59408,-65.58466 c 1.38099,-2.33193 3.25793,-4.64963 3.24123,-4.67257 -0.1016,-0.13963 1.94973,-3.579316 0.72092,-3.923701 -2.03814,-0.571227 -10.88715,-0.823013 -13.31781,-0.823013 -2.43065,0 -4.4005,0.251786 -6.43864,0.823013 -1.22881,0.344385 -6.05666,1.138235 -6.15825,1.277866 -0.0167,0.02293 0.72749,4.771435 1.65373,7.318405 l 1.68409,4.63087 h 9.25907 6.61324 z"
       style="fill:#000000;stroke-width:0.115766" />
    <path
       transform="scale(0.26458333)"
       id="path1171"
       d="m 613.24289,682.3812 c -28.38703,-4.16269 -55.51455,-24.75188 -64.48296,-48.94113 -6.36593,-17.16996 -8.62072,-45.18507 -5.30829,-65.95407 6.42759,-40.30119 23.91794,-72.82075 58.77793,-109.28492 21.5717,-22.56441 21.86446,-22.76385 33.41513,-22.76385 6.40901,0 19.9938,-1.16013 30.18841,-2.57807 22.00876,-3.06113 21.20519,-3.44534 47.4466,22.68505 64.93327,64.65854 71.29496,187.03828 11.31358,217.63849 -20.45667,10.43622 -73.19837,14.79315 -111.3504,9.1985 z m 60.88897,-39.69787 c 7.67175,-3.96721 19.58972,-17.10439 19.48056,-21.47341 -0.0694,-2.7768 -13.28294,-18.59168 -15.53362,-18.59168 -0.62452,0 -3.86126,2.72578 -7.19276,6.05728 -10.5366,10.5366 -24.54713,5.98317 -30.60344,-9.94613 -3.76185,-9.89442 -2.98276,-10.64863 10.99987,-10.64863 h 13.32602 V 575.9662 563.85163 h -15.91745 c -15.12112,0 -15.87872,-0.27273 -15.14321,-5.45155 0.6954,-4.89639 2.31638,-5.52502 15.91745,-6.1729 l 15.14321,-0.72135 V 540.71834 529.93085 H 651.0198 637.43112 l 1.58346,-6.66301 c 4.65567,-19.59052 20.07499,-25.63147 32.22906,-12.62663 l 7.133,7.6323 7.65341,-9.66321 c 4.20937,-5.31476 7.6534,-10.78554 7.6534,-12.15728 0,-1.37174 -2.85565,-5.88782 -6.34589,-10.03574 -16.45666,-19.55761 -41.03543,-19.65342 -57.38448,-0.22369 -6.54125,7.77384 -16.22577,31.04083 -16.22577,38.98232 0,3.66799 -1.66158,4.75494 -7.26874,4.75494 -6.99952,0 -7.26874,0.40382 -7.26874,10.90311 0,10.0147 0.49356,10.90311 6.05729,10.90311 4.84582,0 6.05728,1.21145 6.05728,6.05728 0,4.84582 -1.21146,6.05728 -6.05728,6.05728 -5.65347,0 -6.05729,0.80764 -6.05729,12.11457 0,11.74163 0.21545,12.11456 6.9991,12.11456 6.17521,0 7.19597,1.06952 8.67166,9.08593 2.0834,11.31764 9.82029,29.19765 15.31393,35.39062 11.58668,13.06163 30.05393,17.31575 43.95734,10.12602 z"
       style="fill:#808000;fill-opacity:1;stroke:none;stroke-width:13.7362;stroke-miterlimit:4;stroke-dasharray:none;stroke-opacity:1" />
    <path
       transform="scale(0.26458333)"
       id="path1173"
       d="m 615.48194,402.12218 c -2.22666,-6.32986 -5.03788,-16.08018 -6.24717,-21.66737 l -2.1987,-10.15853 12.43154,-2.85082 c 17.25987,-3.95804 49.05362,-5.61954 68.23201,-3.56571 15.12662,1.61993 16.01082,2.04995 14.72759,7.16275 -0.75085,2.99164 -6.2963,12.79293 -12.32322,21.78064 -6.02691,8.9877 -10.95802,17.34627 -10.95802,18.57458 0,1.24143 -13.23841,2.2333 -29.80778,2.2333 h -29.80778 z"
       style="fill:#808000;fill-opacity:1;stroke:none;stroke-width:13.7362;stroke-miterlimit:4;stroke-dasharray:none;stroke-opacity:1" />
  </g>
</svg>
